<mxfile host="65bd71144e">
    <diagram id="SdBEuF2a8lLN3GQKlFG6" name="Page-1">
        <mxGraphModel dx="1215" dy="379" grid="1" gridSize="10" guides="1" tooltips="1" connect="1" arrows="1" fold="1" page="1" pageScale="1" pageWidth="850" pageHeight="1100" math="0" shadow="0">
            <root>
                <mxCell id="0"/>
                <mxCell id="1" parent="0"/>
                <mxCell id="71" value="" style="dashed=0;aspect=fixed;verticalLabelPosition=bottom;verticalAlign=top;align=center;shape=mxgraph.gmdl.x;strokeColor=#737373;fillColor=#737373;shadow=0;strokeWidth=2;sketch=0;" parent="1" vertex="1">
                    <mxGeometry x="-180" y="390" width="16" height="16" as="geometry"/>
                </mxCell>
            </root>
        </mxGraphModel>
    </diagram>
</mxfile>